<svg width="28" height="27" viewBox="0 0 28 27" fill="none" xmlns="http://www.w3.org/2000/svg">
<path d="M10.5281 0.548994C9.57727 0.796098 9.06158 0.946509 9.00786 1.00023C8.981 1.02171 9.2281 1.24733 9.55041 1.49981C10.093 1.92955 10.5925 2.41302 10.8611 2.7783L10.9793 2.93408H13.6652L16.3565 2.92871L16.5982 2.63326C16.9635 2.17666 17.8069 1.39237 18.1077 1.22047C18.3172 1.10229 18.3602 1.05932 18.3011 1.01097C18.0486 0.801469 15.8516 0.291147 15.6098 0.387839C15.3735 0.47916 14.4495 1.60724 13.9768 2.38078C13.8371 2.6064 13.7028 2.79979 13.6706 2.80516C13.6437 2.8159 13.445 2.54731 13.2301 2.21963C12.795 1.54278 11.957 0.522135 11.7582 0.425442C11.5541 0.318006 11.3124 0.344865 10.5281 0.548994Z" fill="white"/>
<path d="M6.02537 2.4507C5.69769 2.585 4.15061 3.83126 3.68863 4.33084C3.51673 4.51348 3.38244 4.66926 3.39318 4.67464C3.40392 4.68001 3.68863 4.66926 4.02706 4.64241C5.64397 4.5296 7.23403 4.81968 8.346 5.42669C9.08731 5.82958 9.56003 6.20023 10.3336 6.97378L11.0803 7.72046L13.6748 7.70434L16.2748 7.68823L16.9302 7.03287C18.0368 5.93701 18.907 5.3676 20.0619 4.98083C21.0718 4.64778 22.0388 4.54571 23.3011 4.63703C23.6288 4.66389 23.9028 4.66389 23.9028 4.64241C23.9028 4.50274 22.6512 3.40689 21.7003 2.71392C21.3297 2.44533 21.276 2.42384 21.0289 2.43459C20.5991 2.4507 19.369 2.7945 18.6492 3.09532C17.4351 3.61102 16.4037 4.30398 15.469 5.24405C14.8513 5.86181 14.4699 6.34527 13.9972 7.10807C13.8253 7.38203 13.6802 7.60765 13.6641 7.60765C13.6534 7.60765 13.4116 7.25848 13.1323 6.82874C12.1492 5.33537 10.86 4.17506 9.3183 3.39077C8.20633 2.82673 6.38528 2.30566 6.02537 2.4507Z" fill="white"/>
<path d="M21.7274 7.07056C19.6968 7.22635 17.6663 8.09658 16.001 9.52548C15.0609 10.3313 14.658 10.8147 13.8899 12.0234C13.7878 12.1953 13.6804 12.3349 13.6589 12.3349C13.632 12.3349 13.4171 12.0288 13.1754 11.6474C11.7143 9.37507 9.442 7.82262 6.76683 7.25858C5.85363 7.06519 4.34952 7.01684 3.43631 7.14577C2.22765 7.32304 1.29832 7.61849 1.13717 7.88171C0.830973 8.37054 -0.0177749 10.7771 0.0789179 10.8738C0.0896615 10.8899 0.326022 10.7556 0.599985 10.5891C1.36278 10.111 1.69584 9.94449 2.25451 9.75647C3.11937 9.46639 3.73176 9.3697 4.69868 9.3697C6.05775 9.36433 7.05154 9.5792 8.19037 10.1271C9.13581 10.5837 10.1618 11.3949 10.742 12.1469L10.9676 12.4424H13.6643H16.3609L16.4576 12.2759C16.6134 12.0073 17.3816 11.2821 17.9671 10.847C19.9332 9.37507 22.5331 8.9507 24.9236 9.7135C25.5789 9.923 25.9442 10.1003 26.6426 10.5354C26.9541 10.7288 27.212 10.8631 27.2227 10.8362C27.2496 10.761 27.0293 9.94986 26.8628 9.49863C26.519 8.5693 26.2021 7.87634 26.0517 7.75278C25.9657 7.67758 25.6488 7.55403 25.3211 7.45733C24.1823 7.12428 22.8554 6.98461 21.7274 7.07056Z" fill="white"/>
<path d="M3.9209 12.1039C3.37834 12.163 2.48125 12.351 1.93332 12.5283C1.26185 12.7378 0.176737 13.2267 0.0585573 13.3717C-0.000532701 13.4469 -0.0112763 13.7101 0.0102109 14.72C0.0209546 15.413 0.0478137 15.9985 0.069301 16.02C0.0854164 16.0415 0.375495 15.875 0.708548 15.6493C1.64862 15.0262 2.24489 14.7522 3.24405 14.5051C3.91015 14.3386 5.36054 14.2688 6.05888 14.3709C7.81547 14.6287 9.4109 15.6547 10.6464 17.3146C10.9365 17.7068 11.1729 18.0398 11.1729 18.0613C11.1729 18.0774 11.0815 18.2063 10.9634 18.346C10.5497 18.8402 10.2006 19.458 9.88899 20.2584C9.03487 22.4232 8.72868 24.0724 8.86297 25.7108C8.8952 26.119 8.94892 26.5703 8.98652 26.7099L9.05099 26.9731L10.1952 26.9893C11.4952 27.0054 11.3877 27.0591 11.2481 26.4628C11.1191 25.8934 11.0923 24.5075 11.1943 23.7769C11.3448 22.7616 11.7423 21.7249 12.3439 20.7955C12.591 20.4141 13.1497 19.7158 13.3914 19.4902L13.5257 19.3666L13.9125 19.8125C14.8794 20.9137 15.4435 22.0472 15.7496 23.4761C15.9484 24.4215 15.9054 25.9418 15.653 26.8764L15.6207 27H16.7757H17.936L17.9897 26.7959C18.0864 26.4306 18.1562 25.6946 18.1562 25.0017C18.1562 22.7724 17.4364 20.6344 16.0988 18.9262L15.9377 18.7167L16.0344 18.5233C16.3459 17.8572 17.1678 16.8043 17.7963 16.2564C19.2521 14.9779 20.9603 14.3225 22.8566 14.3225C23.9417 14.3171 24.6078 14.4246 25.5425 14.7522C26.1119 14.951 26.5255 15.1713 27.2776 15.6762C27.5838 15.8803 27.847 16.0361 27.8631 16.02C27.9276 15.9555 27.9974 14.4622 27.9598 13.9196L27.9222 13.3448L27.2131 13.001C26.4664 12.6411 25.5962 12.3618 24.683 12.1953C24.2532 12.1147 23.8826 12.0932 22.8566 12.0986C21.664 12.0986 21.5136 12.1093 20.8958 12.2382C20.074 12.4155 19.6066 12.5659 18.774 12.9258C17.6405 13.4093 16.4802 14.07 15.8195 14.6072C15.6744 14.7308 15.0997 15.2733 14.5517 15.8159L13.5472 16.8043L13.1013 16.3369C12.6662 15.8803 11.1567 14.4675 10.5067 13.8981C10.0072 13.4684 9.26586 12.9795 8.75554 12.7539C8.19149 12.5068 7.2568 12.2544 6.494 12.1469C5.98368 12.0771 4.43122 12.0502 3.9209 12.1039Z" fill="white"/>
</svg>
