<svg width="144" height="34" viewBox="0 0 144 34" fill="none" xmlns="http://www.w3.org/2000/svg">
<path d="M13.425 0.853437C12.2441 1.16034 11.6036 1.34715 11.5369 1.41387C11.5036 1.44056 11.8105 1.72078 12.2108 2.03436C12.8846 2.5681 13.5051 3.16857 13.8387 3.62226L13.9855 3.81574H17.3214L20.664 3.80907L20.9642 3.44212C21.4179 2.87501 22.4654 1.90092 22.839 1.68742C23.0992 1.54064 23.1526 1.48726 23.0792 1.42722C22.7656 1.16701 20.0369 0.533188 19.7366 0.653282C19.4431 0.766703 18.2955 2.16779 17.7084 3.12854C17.5349 3.40876 17.3681 3.64894 17.3281 3.65562C17.2947 3.66896 17.0479 3.33537 16.781 2.92838C16.2406 2.08773 15.1998 0.820078 14.9529 0.699984C14.6994 0.566547 14.3991 0.599907 13.425 0.853437Z" fill="#187088"/>
<path d="M7.83274 3.21539C7.42576 3.38219 5.50427 4.93006 4.93049 5.55054C4.71699 5.77738 4.55019 5.97087 4.56354 5.97754C4.57688 5.98421 4.93049 5.97087 5.35081 5.93751C7.35904 5.7974 9.33391 6.15768 10.715 6.9116C11.6357 7.41199 12.2228 7.87235 13.1836 8.83309L14.111 9.76048L20.5626 9.72045L21.3766 8.90648C22.751 7.54543 23.8319 6.83821 25.2663 6.35784C26.5206 5.94418 27.7215 5.81742 29.2894 5.93084C29.6964 5.9642 30.0367 5.9642 30.0367 5.93751C30.0367 5.76404 28.4821 4.40298 27.3012 3.54231C26.8409 3.20872 26.7741 3.18203 26.4672 3.19538C25.9335 3.21539 24.4056 3.64239 23.5116 4.01602C22.0038 4.65651 20.7228 5.51718 19.5619 6.68476C18.7946 7.45202 18.3209 8.05249 17.7338 8.99989C17.5203 9.34015 17.3401 9.62037 17.3201 9.62037C17.3068 9.62037 17.0065 9.1867 16.6596 8.65295C15.4387 6.79818 13.8374 5.35706 11.9226 4.38297C10.5415 3.68242 8.27976 3.03525 7.83274 3.21539Z" fill="#187088"/>
<path d="M27.3347 8.95319C24.8128 9.14668 22.2908 10.2275 20.2225 12.0022C19.055 13.003 18.5546 13.6035 17.6005 15.1046C17.4737 15.3181 17.3403 15.4916 17.3136 15.4916C17.2803 15.4916 17.0134 15.1113 16.7131 14.6376C14.8984 11.8154 12.0762 9.88725 8.75362 9.18671C7.61941 8.94652 5.75129 8.88647 4.61707 9.0466C3.1159 9.26677 1.96167 9.63372 1.76152 9.96064C1.38122 10.5678 0.327068 13.5568 0.447162 13.6769C0.460505 13.6969 0.754067 13.5301 1.09433 13.3233C2.04173 12.7295 2.45539 12.5226 3.14926 12.2891C4.22343 11.9288 4.98402 11.8087 6.18496 11.8087C7.87294 11.8021 9.10723 12.0689 10.5217 12.7495C11.6959 13.3166 12.9702 14.324 13.6908 15.2581L13.971 15.625H20.6696L20.7896 15.4182C20.9831 15.0846 21.9372 14.1839 22.6644 13.6435C25.1063 11.8154 28.3355 11.2883 31.3045 12.2357C32.1185 12.4959 32.5721 12.7161 33.4395 13.2565C33.8264 13.4967 34.1467 13.6635 34.16 13.6302C34.1934 13.5368 33.9199 12.5293 33.713 11.9689C33.286 10.8146 32.8924 9.95397 32.7056 9.80052C32.5988 9.70711 32.2052 9.55366 31.7982 9.43357C30.3838 9.01991 28.7358 8.84644 27.3347 8.95319Z" fill="#187088"/>
<path d="M5.21842 15.2048C4.54457 15.2781 3.43037 15.5117 2.74984 15.7318C1.91586 15.992 0.568142 16.5992 0.421362 16.7793C0.347971 16.8727 0.334627 17.1996 0.361315 18.4539C0.374659 19.3146 0.408018 20.0418 0.434705 20.0685C0.454721 20.0952 0.815001 19.8884 1.22866 19.6082C2.39623 18.8342 3.13681 18.494 4.37777 18.1871C5.20508 17.9802 7.00648 17.8935 7.87382 18.0203C10.0555 18.3405 12.0371 19.6149 13.5716 21.6765C13.9319 22.1635 14.2254 22.5772 14.2254 22.6038C14.2254 22.6239 14.112 22.784 13.9652 22.9574C13.4515 23.5713 13.0178 24.3385 12.6309 25.3326C11.57 28.0214 11.1897 30.0696 11.3565 32.1046C11.3966 32.6116 11.4633 33.1721 11.51 33.3455L11.59 33.6724L13.0112 33.6925C14.6257 33.7125 14.4923 33.7792 14.3188 33.0386C14.1587 32.3314 14.1254 30.6101 14.2521 29.7027C14.4389 28.4417 14.9326 27.154 15.6799 25.9998C15.9868 25.5261 16.6807 24.6588 16.9809 24.3786L17.1477 24.2251L17.6281 24.7789C18.829 26.1466 19.5296 27.5544 19.9098 29.3291C20.1567 30.5033 20.1033 32.3915 19.7898 33.5524L19.7497 33.7058H22.6253L22.692 33.4523C22.8121 32.9986 22.8988 32.0845 22.8988 31.2239C22.8988 28.4551 22.0048 25.7997 20.3435 23.678L20.1434 23.4178L20.2635 23.1776C20.6504 22.3503 21.6712 21.0426 22.4518 20.3621C24.2599 18.7742 26.3815 17.9602 28.7367 17.9602C30.0844 17.9536 30.9117 18.087 32.0726 18.494C32.7799 18.7408 33.2936 19.0144 34.2276 19.6415C34.6079 19.8951 34.9349 20.0886 34.9549 20.0685C35.0349 19.9885 35.1217 18.1337 35.075 17.4598L35.0283 16.746L34.1476 16.319C33.2202 15.8719 32.1394 15.525 31.0051 15.3182C30.4714 15.2181 30.011 15.1914 28.7367 15.1981C27.2556 15.1981 27.0687 15.2114 26.3015 15.3716C25.2807 15.5917 24.7002 15.7785 23.6661 16.2255C22.2583 16.826 20.8172 17.6467 19.9966 18.3138C19.8164 18.4673 19.1026 19.1411 18.422 19.815L17.1744 21.0426L16.6206 20.4622C16.0802 19.8951 14.2054 18.1404 13.3981 17.4332C12.7776 16.8994 11.8569 16.2923 11.2231 16.012C10.5225 15.7051 9.36165 15.3916 8.41424 15.2581C7.78042 15.1714 5.85225 15.138 5.21842 15.2048Z" fill="#187088"/>
<path d="M52.3745 7.05432V20.3813C52.3745 22.0795 52.6955 23.3531 53.3375 24.2023C54.0002 25.0514 55.1082 25.4759 56.6614 25.4759C58.2147 25.4759 59.3123 25.0514 59.9543 24.2023C60.6171 23.3531 60.9484 22.0795 60.9484 20.3813V7.05432H64.9869V19.8531C64.9869 21.4478 64.8316 22.825 64.5209 23.9848C64.231 25.1446 63.7546 26.1076 63.0919 26.8739C62.4292 27.6401 61.5594 28.2097 60.4825 28.5824C59.4262 28.9345 58.1422 29.1105 56.6304 29.1105C55.0978 29.1105 53.8035 28.9345 52.7472 28.5824C51.7117 28.2097 50.8626 27.6401 50.1999 26.8739C49.5372 26.1076 49.0608 25.1446 48.7709 23.9848C48.481 22.825 48.336 21.4478 48.336 19.8531V7.05432H52.3745Z" fill="#187088"/>
<path d="M77.9337 10.6889V28.7378H73.8331V10.6889H67.6822V7.05432H84.0846V10.6889H77.9337Z" fill="#187088"/>
<path d="M86.9243 28.7378V7.05432H91.0249V25.1031H99.5678V28.7378H86.9243Z" fill="#187088"/>
<path d="M116.573 28.7378L114.833 23.2082H107.129L105.42 28.7378H101.258L108.527 7.05432H113.621L120.829 28.7378H116.573ZM111.043 10.7821H110.888L108.123 19.6978H113.839L111.043 10.7821Z" fill="#187088"/>
<path d="M139.878 13.1741H139.754L138.076 16.6224L133.634 24.8236L129.192 16.6224L127.514 13.1741H127.39V28.7378H123.507V7.05432H128.135L133.696 17.6475H133.82L139.319 7.05432H143.761V28.7378H139.878V13.1741Z" fill="#187088"/>
</svg>
