<svg width="268" height="248" viewBox="0 0 268 248" fill="none" xmlns="http://www.w3.org/2000/svg">
<path d="M97.995 1.72663C89.145 4.02664 84.345 5.42664 83.845 5.92664C83.595 6.12663 85.895 8.22664 88.895 10.5766C93.945 14.5766 98.595 19.0766 101.095 22.4766L102.195 23.9266H127.195L152.245 23.8766L154.495 21.1266C157.895 16.8766 165.745 9.57664 168.545 7.97664C170.495 6.87663 170.895 6.47663 170.345 6.02664C167.995 4.07664 147.545 -0.673365 145.295 0.226635C143.095 1.07664 134.495 11.5766 130.095 18.7766C128.795 20.8766 127.545 22.6766 127.245 22.7266C126.995 22.8266 125.145 20.3266 123.145 17.2766C119.095 10.9766 111.295 1.47663 109.445 0.576635C107.545 -0.423365 105.295 -0.173365 97.995 1.72663Z" fill="#187088"/>
<path d="M56.095 19.4267C53.045 20.6767 38.645 32.2767 34.345 36.9267C32.745 38.6267 31.495 40.0767 31.595 40.1267C31.695 40.1767 34.345 40.0767 37.495 39.8267C52.545 38.7767 67.345 41.4767 77.695 47.1267C84.595 50.8767 88.995 54.3267 96.195 61.5267L103.145 68.4767L127.295 68.3267L151.495 68.1767L157.595 62.0767C167.895 51.8767 175.995 46.5767 186.745 42.9767C196.145 39.8767 205.145 38.9267 216.895 39.7767C219.945 40.0267 222.495 40.0267 222.495 39.8267C222.495 38.5267 210.845 28.3267 201.995 21.8767C198.545 19.3767 198.045 19.1767 195.745 19.2767C191.745 19.4267 180.295 22.6267 173.595 25.4267C162.295 30.2267 152.695 36.6767 143.995 45.4267C138.245 51.1767 134.695 55.6767 130.295 62.7767C128.695 65.3267 127.345 67.4267 127.195 67.4267C127.095 67.4267 124.845 64.1767 122.245 60.1767C113.095 46.2767 101.095 35.4767 86.745 28.1767C76.395 22.9267 59.445 18.0767 56.095 19.4267Z" fill="#187088"/>
<path d="M265.745 48.9266C265.345 49.6266 265.895 50.4266 266.795 50.4266C267.195 50.4266 267.495 49.9766 267.495 49.4266C267.495 48.3766 266.295 48.0266 265.745 48.9266Z" fill="#187088"/>
<path d="M202.245 62.4266C183.345 63.8766 164.445 71.9766 148.945 85.2766C140.195 92.7766 136.445 97.2766 129.295 108.527C128.345 110.127 127.345 111.427 127.145 111.427C126.895 111.427 124.895 108.577 122.645 105.027C109.045 83.8766 87.895 69.4266 62.995 64.1766C54.495 62.3766 40.495 61.9266 31.995 63.1266C20.745 64.7766 12.095 67.5266 10.595 69.9766C7.74502 74.5266 -0.154981 96.9266 0.745019 97.8266C0.845019 97.9766 3.04502 96.7266 5.59502 95.1766C12.695 90.7266 15.795 89.1766 20.995 87.4266C29.045 84.7266 34.745 83.8266 43.745 83.8266C56.395 83.7766 65.645 85.7766 76.245 90.8766C85.045 95.1266 94.595 102.677 99.995 109.677L102.095 112.427H127.195H152.295L153.195 110.877C154.645 108.377 161.795 101.627 167.245 97.5766C185.545 83.8766 209.745 79.9266 231.995 87.0266C238.095 88.9766 241.495 90.6266 247.995 94.6766C250.895 96.4766 253.295 97.7266 253.395 97.4766C253.645 96.7766 251.595 89.2266 250.045 85.0266C246.845 76.3766 243.895 69.9266 242.495 68.7766C241.695 68.0766 238.745 66.9266 235.695 66.0266C225.095 62.9266 212.745 61.6266 202.245 62.4266Z" fill="#187088"/>
<path d="M36.495 109.277C31.445 109.827 23.095 111.577 17.995 113.227C11.745 115.177 1.64504 119.727 0.545042 121.077C-0.0049583 121.777 -0.104958 124.227 0.0950417 133.627C0.195042 140.077 0.445042 145.527 0.645042 145.727C0.795042 145.927 3.49504 144.377 6.59504 142.277C15.345 136.477 20.895 133.927 30.195 131.627C36.395 130.077 49.895 129.427 56.395 130.377C72.745 132.777 87.595 142.327 99.095 157.777C101.795 161.427 103.995 164.527 103.995 164.727C103.995 164.877 103.145 166.077 102.045 167.377C98.195 171.977 94.945 177.727 92.045 185.177C84.095 205.327 81.245 220.677 82.495 235.927C82.795 239.727 83.295 243.927 83.645 245.227L84.245 247.677L94.895 247.827C106.995 247.977 105.995 248.477 104.695 242.927C103.495 237.627 103.245 224.727 104.195 217.927C105.595 208.477 109.295 198.827 114.895 190.177C117.195 186.627 122.395 180.127 124.645 178.027L125.895 176.877L129.495 181.027C138.495 191.277 143.745 201.827 146.595 215.127C148.445 223.927 148.045 238.077 145.695 246.777L145.395 247.927H156.145H166.945L167.445 246.027C168.345 242.627 168.995 235.777 168.995 229.327C168.995 208.577 162.295 188.677 149.845 172.777L148.345 170.827L149.245 169.027C152.145 162.827 159.795 153.027 165.645 147.927C179.195 136.027 195.095 129.927 212.745 129.927C222.845 129.877 229.045 130.877 237.745 133.927C243.045 135.777 246.895 137.827 253.895 142.527C256.745 144.427 259.195 145.877 259.345 145.727C259.945 145.127 260.595 131.227 260.245 126.177L259.895 120.827L253.295 117.627C246.345 114.277 238.245 111.677 229.745 110.127C225.745 109.377 222.295 109.177 212.745 109.227C201.645 109.227 200.245 109.327 194.495 110.527C186.845 112.177 182.495 113.577 174.745 116.927C164.195 121.427 153.395 127.577 147.245 132.577C145.895 133.727 140.545 138.777 135.445 143.827L126.095 153.027L121.945 148.677C117.895 144.427 103.845 131.277 97.795 125.977C93.145 121.977 86.245 117.427 81.495 115.327C76.245 113.027 67.545 110.677 60.445 109.677C55.695 109.027 41.245 108.777 36.495 109.277Z" fill="#187088"/>
<path d="M265.345 165.627C264.995 166.527 265.395 166.927 266.595 166.927C267.145 166.927 267.495 166.577 267.495 165.927C267.495 164.777 265.745 164.527 265.345 165.627Z" fill="#187088"/>
</svg>
